<svg width="28" height="26" viewBox="0 0 28 26" fill="none" xmlns="http://www.w3.org/2000/svg">
<path d="M13.5165 5.70462C15.6541 5.70462 17.6684 6.58456 19.1445 7.96012V7.96418C19.1445 7.30362 19.6231 6.80393 20.2846 6.80393H20.4526C21.4965 6.80393 21.7056 7.71799 21.7056 8.00643L21.71 18.2724C21.6374 18.9451 22.4581 19.2929 22.914 18.8606C24.6859 17.1682 26.8095 10.1514 21.8106 6.08893C17.1486 2.29699 10.8915 2.92343 7.56474 5.05218C4.02887 7.32068 1.76874 12.3314 3.96412 17.0406C6.36162 22.1748 13.2155 23.7064 17.2947 22.1789C19.3597 21.4046 20.3117 23.9932 18.1654 24.8406C14.9305 26.1219 5.91537 25.9911 1.70487 19.2206C-1.13976 14.647 -0.989259 6.60162 6.55849 2.43349C12.3274 -0.757194 19.939 0.126807 24.5275 4.57524C29.3225 9.23006 29.0451 17.9392 24.3639 21.3249C22.2437 22.8646 19.0955 21.3672 19.1182 19.1239L19.0946 18.3926C17.6185 19.7503 15.6541 20.5466 13.5165 20.5466C9.28761 20.5466 5.56449 17.0886 5.56449 13.1658C5.56449 9.20081 9.28761 5.70624 13.5165 5.70624V5.70462ZM18.8356 12.8822C18.6755 10.0084 16.3786 8.27781 13.6031 8.27781H13.4981C10.2991 8.27781 8.52199 10.6178 8.52199 13.2706C8.52199 16.2452 10.6684 18.1237 13.485 18.1237C16.6289 18.1237 18.693 15.9876 18.8435 13.4607L18.8356 12.8822Z" fill="white"/>
</svg>
